<?xml version="1.0" standalone="no"?>
<!DOCTYPE svg PUBLIC "-//W3C//DTD SVG 20010904//EN"
 "http://www.w3.org/TR/2001/REC-SVG-20010904/DTD/svg10.dtd">
<svg version="1.0" xmlns="http://www.w3.org/2000/svg"
 width="1536.000000pt" height="1536.000000pt" viewBox="0 0 1536.000000 1536.000000"
 preserveAspectRatio="xMidYMid meet">

<g transform="translate(0.000000,1536.000000) scale(0.100000,-0.100000)"
fill="#000000" stroke="none">
<path d="M5920 14160 l0 -80 -400 0 -400 0 0 -80 0 -80 -640 0 -640 0 0 -80 0
-80 -160 0 -160 0 0 -80 0 -80 -400 0 -400 0 0 -80 0 -80 -160 0 -160 0 0 -80
0 -80 -160 0 -160 0 0 -80 0 -80 -80 0 -80 0 0 -80 0 -80 -80 0 -80 0 0 -80 0
-80 -160 0 -160 0 0 -80 0 -80 -80 0 -80 0 0 -80 0 -80 -160 0 -160 0 0 -80 0
-80 -160 0 -160 0 0 -80 0 -80 -80 0 -80 0 0 -80 0 -80 -80 0 -80 0 0 -80 0
-80 -80 0 -80 0 0 -160 0 -160 -80 0 -80 0 0 -240 0 -240 80 0 80 0 0 160 0
160 80 0 80 0 0 80 0 80 80 0 80 0 0 80 0 80 80 0 80 0 0 80 0 80 160 0 160 0
0 80 0 80 80 0 80 0 0 80 0 80 80 0 80 0 0 80 0 80 160 0 160 0 0 80 0 80 80
0 80 0 0 80 0 80 160 0 160 0 0 160 0 160 160 0 160 0 0 80 0 80 320 0 320 0
0 80 0 80 240 0 240 0 0 80 0 80 160 0 160 0 0 80 0 80 400 0 400 0 0 80 0 80
240 0 240 0 0 -80 0 -80 160 0 160 0 0 80 0 80 -80 0 -80 0 0 80 0 80 320 0
320 0 0 80 0 80 80 0 80 0 0 -80 0 -80 160 0 160 0 0 -80 0 -80 320 0 320 0 0
-80 0 -80 80 0 80 0 0 -80 0 -80 480 0 480 0 0 80 0 80 80 0 80 0 0 -80 0 -80
160 0 160 0 0 -80 0 -80 80 0 80 0 0 -80 0 -80 160 0 160 0 0 -160 0 -160 -80
0 -80 0 0 80 0 80 -160 0 -160 0 0 80 0 80 -80 0 -80 0 0 80 0 80 -240 0 -240
0 0 -80 0 -80 -320 0 -320 0 0 -80 0 -80 80 0 80 0 0 -160 0 -160 -80 0 -80 0
0 80 0 80 -80 0 -80 0 0 80 0 80 -160 0 -160 0 0 80 0 80 -240 0 -240 0 0
-160 0 -160 -80 0 -80 0 0 80 0 80 -80 0 -80 0 0 80 0 80 -160 0 -160 0 0 -80
0 -80 -80 0 -80 0 0 80 0 80 -160 0 -160 0 0 80 0 80 -80 0 -80 0 0 80 0 80
-240 0 -240 0 0 -80 0 -80 -160 0 -160 0 0 -80 0 -80 240 0 240 0 0 -160 0
-160 160 0 160 0 0 160 0 160 80 0 80 0 0 -80 0 -80 80 0 80 0 0 -80 0 -80 80
0 80 0 0 -240 0 -240 80 0 80 0 0 80 0 80 80 0 80 0 0 160 0 160 160 0 160 0
0 -240 0 -240 160 0 160 0 0 80 0 80 80 0 80 0 0 240 0 240 80 0 80 0 0 -80 0
-80 160 0 160 0 0 -240 0 -240 160 0 160 0 0 160 0 160 80 0 80 0 0 80 0 80
80 0 80 0 0 80 0 80 80 0 80 0 0 -240 0 -240 80 0 80 0 0 80 0 80 80 0 80 0 0
80 0 80 -80 0 -80 0 0 160 0 160 80 0 80 0 0 -80 0 -80 80 0 80 0 0 -80 0 -80
160 0 160 0 0 -80 0 -80 80 0 80 0 0 -80 0 -80 -160 0 -160 0 0 -80 0 -80 -80
0 -80 0 0 -80 0 -80 -80 0 -80 0 0 80 0 80 -80 0 -80 0 0 -80 0 -80 -80 0 -80
0 0 80 0 80 -160 0 -160 0 0 -80 0 -80 80 0 80 0 0 -80 0 -80 -80 0 -80 0 0
-160 0 -160 -80 0 -80 0 0 80 0 80 -80 0 -80 0 0 80 0 80 -320 0 -320 0 0 -80
0 -80 -80 0 -80 0 0 -80 0 -80 -240 0 -240 0 0 80 0 80 -80 0 -80 0 0 80 0 80
-80 0 -80 0 0 -80 0 -80 -80 0 -80 0 0 80 0 80 -400 0 -400 0 0 -160 0 -160
80 0 80 0 0 80 0 80 80 0 80 0 0 -80 0 -80 80 0 80 0 0 -80 0 -80 80 0 80 0 0
80 0 80 80 0 80 0 0 -80 0 -80 240 0 240 0 0 -80 0 -80 80 0 80 0 0 -80 0 -80
-80 0 -80 0 0 -80 0 -80 160 0 160 0 0 160 0 160 80 0 80 0 0 -80 0 -80 80 0
80 0 0 240 0 240 80 0 80 0 0 80 0 80 160 0 160 0 0 -240 0 -240 240 0 240 0
0 80 0 80 80 0 80 0 0 160 0 160 160 0 160 0 0 80 0 80 80 0 80 0 0 -80 0 -80
80 0 80 0 0 -80 0 -80 80 0 80 0 0 -80 0 -80 80 0 80 0 0 -80 0 -80 -160 0
-160 0 0 80 0 80 -80 0 -80 0 0 -240 0 -240 -560 0 -560 0 0 -80 0 -80 -80 0
-80 0 0 -400 0 -400 -80 0 -80 0 0 160 0 160 -80 0 -80 0 0 80 0 80 -160 0
-160 0 0 -80 0 -80 -80 0 -80 0 0 80 0 80 -160 0 -160 0 0 -80 0 -80 -320 0
-320 0 0 160 0 160 80 0 80 0 0 80 0 80 -240 0 -240 0 0 -80 0 -80 -80 0 -80
0 0 160 0 160 -80 0 -80 0 0 -80 0 -80 -80 0 -80 0 0 80 0 80 -80 0 -80 0 0
80 0 80 -80 0 -80 0 0 80 0 80 -80 0 -80 0 0 80 0 80 -80 0 -80 0 0 -400 0
-400 -160 0 -160 0 0 80 0 80 -80 0 -80 0 0 80 0 80 -160 0 -160 0 0 -80 0
-80 -160 0 -160 0 0 -80 0 -80 80 0 80 0 0 -240 0 -240 -80 0 -80 0 0 80 0 80
-240 0 -240 0 0 -80 0 -80 80 0 80 0 0 -160 0 -160 -80 0 -80 0 0 -160 0 -160
-160 0 -160 0 0 -160 0 -160 -160 0 -160 0 0 -160 0 -160 -80 0 -80 0 0 160 0
160 -160 0 -160 0 0 -80 0 -80 80 0 80 0 0 -240 0 -240 -80 0 -80 0 0 -80 0
-80 80 0 80 0 0 -80 0 -80 80 0 80 0 0 -80 0 -80 -80 0 -80 0 0 -80 0 -80 80
0 80 0 0 -80 0 -80 160 0 160 0 0 80 0 80 240 0 240 0 0 -80 0 -80 320 0 320
0 0 -160 0 -160 -80 0 -80 0 0 -80 0 -80 80 0 80 0 0 -240 0 -240 -80 0 -80 0
0 80 0 80 -80 0 -80 0 0 160 0 160 -80 0 -80 0 0 -80 0 -80 -80 0 -80 0 0 -80
0 -80 -80 0 -80 0 0 -80 0 -80 160 0 160 0 0 80 0 80 80 0 80 0 0 -160 0 -160
160 0 160 0 0 80 0 80 80 0 80 0 0 240 0 240 160 0 160 0 0 -80 0 -80 160 0
160 0 0 -480 0 -480 -80 0 -80 0 0 -80 0 -80 -80 0 -80 0 0 -80 0 -80 -160 0
-160 0 0 80 0 80 -160 0 -160 0 0 80 0 80 -160 0 -160 0 0 80 0 80 -80 0 -80
0 0 -80 0 -80 -80 0 -80 0 0 -80 0 -80 -80 0 -80 0 0 80 0 80 -80 0 -80 0 0
-80 0 -80 -160 0 -160 0 0 80 0 80 -80 0 -80 0 0 -80 0 -80 -80 0 -80 0 0 -80
0 -80 80 0 80 0 0 -80 0 -80 80 0 80 0 0 -80 0 -80 80 0 80 0 0 -240 0 -240
-80 0 -80 0 0 -160 0 -160 -80 0 -80 0 0 -80 0 -80 160 0 160 0 0 160 0 160
80 0 80 0 0 160 0 160 160 0 160 0 0 80 0 80 80 0 80 0 0 -80 0 -80 160 0 160
0 0 -80 0 -80 80 0 80 0 0 -160 0 -160 -80 0 -80 0 0 -160 0 -160 -240 0 -240
0 0 -80 0 -80 -80 0 -80 0 0 -80 0 -80 -80 0 -80 0 0 80 0 80 -80 0 -80 0 0
80 0 80 -160 0 -160 0 0 -80 0 -80 -80 0 -80 0 0 80 0 80 -160 0 -160 0 0 80
0 80 -80 0 -80 0 0 -160 0 -160 -240 0 -240 0 0 80 0 80 -80 0 -80 0 0 -1520
0 -1520 160 0 160 0 0 80 0 80 80 0 80 0 0 80 0 80 80 0 80 0 0 80 0 80 320 0
320 0 0 80 0 80 80 0 80 0 0 80 0 80 160 0 160 0 0 80 0 80 80 0 80 0 0 80 0
80 80 0 80 0 0 80 0 80 80 0 80 0 0 80 0 80 160 0 160 0 0 80 0 80 80 0 80 0
0 80 0 80 160 0 160 0 0 80 0 80 80 0 80 0 0 80 0 80 80 0 80 0 0 160 0 160
80 0 80 0 0 80 0 80 320 0 320 0 0 -80 0 -80 160 0 160 0 0 -80 0 -80 240 0
240 0 0 -80 0 -80 80 0 80 0 0 -160 0 -160 160 0 160 0 0 -80 0 -80 80 0 80 0
0 -80 0 -80 80 0 80 0 0 -80 0 -80 160 0 160 0 0 -80 0 -80 80 0 80 0 0 -80 0
-80 320 0 320 0 0 -80 0 -80 80 0 80 0 0 -80 0 -80 480 0 480 0 0 -80 0 -80
640 0 640 0 0 -80 0 -80 160 0 160 0 0 80 0 80 480 0 480 0 0 80 0 80 160 0
160 0 0 80 0 80 240 0 240 0 0 80 0 80 160 0 160 0 0 80 0 80 240 0 240 0 0
80 0 80 160 0 160 0 0 80 0 80 240 0 240 0 0 80 0 80 160 0 160 0 0 80 0 80
160 0 160 0 0 80 0 80 160 0 160 0 0 80 0 80 240 0 240 0 0 80 0 80 160 0 160
0 0 80 0 80 160 0 160 0 0 80 0 80 80 0 80 0 0 80 0 80 80 0 80 0 0 320 0 320
-240 0 -240 0 0 -80 0 -80 -160 0 -160 0 0 -80 0 -80 -160 0 -160 0 0 -80 0
-80 -160 0 -160 0 0 -160 0 -160 -160 0 -160 0 0 -80 0 -80 -160 0 -160 0 0
-80 0 -80 -80 0 -80 0 0 -80 0 -80 -160 0 -160 0 0 -80 0 -80 -240 0 -240 0 0
-80 0 -80 -160 0 -160 0 0 -80 0 -80 -160 0 -160 0 0 -80 0 -80 -240 0 -240 0
0 -80 0 -80 -320 0 -320 0 0 80 0 80 240 0 240 0 0 80 0 80 240 0 240 0 0 80
0 80 160 0 160 0 0 80 0 80 80 0 80 0 0 80 0 80 160 0 160 0 0 80 0 80 160 0
160 0 0 80 0 80 80 0 80 0 0 80 0 80 160 0 160 0 0 80 0 80 160 0 160 0 0 80
0 80 80 0 80 0 0 80 0 80 80 0 80 0 0 80 0 80 80 0 80 0 0 80 0 80 80 0 80 0
0 80 0 80 80 0 80 0 0 80 0 80 80 0 80 0 0 80 0 80 80 0 80 0 0 80 0 80 80 0
80 0 0 80 0 80 80 0 80 0 0 80 0 80 80 0 80 0 0 80 0 80 80 0 80 0 0 -80 0
-80 80 0 80 0 0 160 0 160 -240 0 -240 0 0 -160 0 -160 -160 0 -160 0 0 -160
0 -160 -160 0 -160 0 0 -80 0 -80 -80 0 -80 0 0 -80 0 -80 -80 0 -80 0 0 -80
0 -80 -80 0 -80 0 0 -80 0 -80 -80 0 -80 0 0 -80 0 -80 -80 0 -80 0 0 -80 0
-80 -80 0 -80 0 0 -80 0 -80 -160 0 -160 0 0 -80 0 -80 -80 0 -80 0 0 -80 0
-80 -160 0 -160 0 0 -80 0 -80 -160 0 -160 0 0 -80 0 -80 -80 0 -80 0 0 -80 0
-80 -160 0 -160 0 0 -80 0 -80 -240 0 -240 0 0 80 0 80 -80 0 -80 0 0 80 0 80
-80 0 -80 0 0 80 0 80 -160 0 -160 0 0 80 0 80 -80 0 -80 0 0 80 0 80 -80 0
-80 0 0 80 0 80 -80 0 -80 0 0 80 0 80 -80 0 -80 0 0 80 0 80 -240 0 -240 0 0
-80 0 -80 -80 0 -80 0 0 -80 0 -80 -80 0 -80 0 0 -80 0 -80 -160 0 -160 0 0
-80 0 -80 -80 0 -80 0 0 -80 0 -80 -80 0 -80 0 0 -80 0 -80 -80 0 -80 0 0 -80
0 -80 -160 0 -160 0 0 -80 0 -80 -80 0 -80 0 0 -80 0 -80 -160 0 -160 0 0 -80
0 -80 -160 0 -160 0 0 -80 0 -80 -160 0 -160 0 0 80 0 80 -160 0 -160 0 0 80
0 80 -160 0 -160 0 0 80 0 80 -160 0 -160 0 0 80 0 80 -160 0 -160 0 0 80 0
80 -80 0 -80 0 0 80 0 80 -80 0 -80 0 0 80 0 80 -80 0 -80 0 0 80 0 80 -80 0
-80 0 0 80 0 80 -80 0 -80 0 0 80 0 80 -80 0 -80 0 0 80 0 80 -80 0 -80 0 0
160 0 160 -80 0 -80 0 0 320 0 320 80 0 80 0 0 160 0 160 80 0 80 0 0 240 0
240 80 0 80 0 0 160 0 160 80 0 80 0 0 80 0 80 80 0 80 0 0 80 0 80 80 0 80 0
0 160 0 160 80 0 80 0 0 80 0 80 160 0 160 0 0 80 0 80 80 0 80 0 0 80 0 80
80 0 80 0 0 -80 0 -80 320 0 320 0 0 80 0 80 80 0 80 0 0 160 0 160 80 0 80 0
0 -80 0 -80 80 0 80 0 0 80 0 80 160 0 160 0 0 160 0 160 80 0 80 0 0 -80 0
-80 80 0 80 0 0 -80 0 -80 80 0 80 0 0 -80 0 -80 480 0 480 0 0 -80 0 -80 -80
0 -80 0 0 -80 0 -80 -80 0 -80 0 0 -160 0 -160 160 0 160 0 0 80 0 80 240 0
240 0 0 80 0 80 80 0 80 0 0 -160 0 -160 -80 0 -80 0 0 -80 0 -80 320 0 320 0
0 240 0 240 80 0 80 0 0 -80 0 -80 160 0 160 0 0 80 0 80 80 0 80 0 0 160 0
160 -80 0 -80 0 0 160 0 160 80 0 80 0 0 160 0 160 -80 0 -80 0 0 -160 0 -160
-80 0 -80 0 0 -80 0 -80 -80 0 -80 0 0 -80 0 -80 -160 0 -160 0 0 -240 0 -240
-80 0 -80 0 0 320 0 320 -80 0 -80 0 0 -80 0 -80 -80 0 -80 0 0 80 0 80 -80 0
-80 0 0 -240 0 -240 -160 0 -160 0 0 80 0 80 80 0 80 0 0 160 0 160 -80 0 -80
0 0 80 0 80 -80 0 -80 0 0 80 0 80 -80 0 -80 0 0 160 0 160 -240 0 -240 0 0
-240 0 -240 80 0 80 0 0 -80 0 -80 -160 0 -160 0 0 160 0 160 -80 0 -80 0 0
80 0 80 -80 0 -80 0 0 80 0 80 -80 0 -80 0 0 -160 0 -160 -80 0 -80 0 0 -80 0
-80 -80 0 -80 0 0 240 0 240 -80 0 -80 0 0 80 0 80 -80 0 -80 0 0 -320 0 -320
-80 0 -80 0 0 -80 0 -80 -80 0 -80 0 0 -160 0 -160 -80 0 -80 0 0 160 0 160
-80 0 -80 0 0 240 0 240 160 0 160 0 0 400 0 400 -240 0 -240 0 0 240 0 240
-80 0 -80 0 0 160 0 160 80 0 80 0 0 80 0 80 80 0 80 0 0 -80 0 -80 80 0 80 0
0 -80 0 -80 -80 0 -80 0 0 -80 0 -80 560 0 560 0 0 -80 0 -80 -80 0 -80 0 0
-160 0 -160 80 0 80 0 0 160 0 160 80 0 80 0 0 -320 0 -320 160 0 160 0 0 80
0 80 80 0 80 0 0 80 0 80 320 0 320 0 0 80 0 80 80 0 80 0 0 80 0 80 80 0 80
0 0 -80 0 -80 80 0 80 0 0 -160 0 -160 240 0 240 0 0 160 0 160 -80 0 -80 0 0
240 0 240 -80 0 -80 0 0 160 0 160 80 0 80 0 0 80 0 80 80 0 80 0 0 80 0 80
160 0 160 0 0 -80 0 -80 80 0 80 0 0 -80 0 -80 -160 0 -160 0 0 -80 0 -80 80
0 80 0 0 -80 0 -80 80 0 80 0 0 -80 0 -80 -240 0 -240 0 0 -80 0 -80 160 0
160 0 0 -80 0 -80 80 0 80 0 0 -160 0 -160 160 0 160 0 0 -80 0 -80 160 0 160
0 0 -160 0 -160 80 0 80 0 0 160 0 160 -80 0 -80 0 0 80 0 80 -80 0 -80 0 0
80 0 80 -160 0 -160 0 0 320 0 320 -80 0 -80 0 0 80 0 80 80 0 80 0 0 240 0
240 -80 0 -80 0 0 80 0 80 -80 0 -80 0 0 80 0 80 -160 0 -160 0 0 160 0 160
80 0 80 0 0 80 0 80 160 0 160 0 0 -80 0 -80 80 0 80 0 0 240 0 240 -80 0 -80
0 0 80 0 80 -480 0 -480 0 0 -80 0 -80 -240 0 -240 0 0 160 0 160 80 0 80 0 0
80 0 80 160 0 160 0 0 80 0 80 80 0 80 0 0 320 0 320 -80 0 -80 0 0 80 0 80
-80 0 -80 0 0 80 0 80 -160 0 -160 0 0 80 0 80 -80 0 -80 0 0 80 0 80 -240 0
-240 0 0 -80 0 -80 -320 0 -320 0 0 80 0 80 -80 0 -80 0 0 80 0 80 -240 0
-240 0 0 80 0 80 -320 0 -320 0 0 80 0 80 -80 0 -80 0 0 -80z m640 -1440 l0
-80 -80 0 -80 0 0 80 0 80 80 0 80 0 0 -80z m3520 -960 l0 -80 -240 0 -240 0
0 -80 0 -80 -80 0 -80 0 0 -400 0 -400 -80 0 -80 0 0 -160 0 -160 -80 0 -80 0
0 80 0 80 -80 0 -80 0 0 80 0 80 -80 0 -80 0 0 160 0 160 -80 0 -80 0 0 -240
0 -240 -80 0 -80 0 0 80 0 80 -80 0 -80 0 0 -160 0 -160 -80 0 -80 0 0 -80 0
-80 240 0 240 0 0 80 0 80 160 0 160 0 0 -80 0 -80 80 0 80 0 0 -80 0 -80 80
0 80 0 0 -160 0 -160 -80 0 -80 0 0 80 0 80 -240 0 -240 0 0 -160 0 -160 -80
0 -80 0 0 240 0 240 -240 0 -240 0 0 -80 0 -80 160 0 160 0 0 -160 0 -160 -80
0 -80 0 0 80 0 80 -80 0 -80 0 0 -160 0 -160 -160 0 -160 0 0 240 0 240 -160
0 -160 0 0 160 0 160 -80 0 -80 0 0 240 0 240 80 0 80 0 0 80 0 80 480 0 480
0 0 80 0 80 160 0 160 0 0 80 0 80 160 0 160 0 0 80 0 80 80 0 80 0 0 160 0
160 80 0 80 0 0 80 0 80 400 0 400 0 0 -80z m-3520 -1440 l0 -80 80 0 80 0 0
-80 0 -80 -80 0 -80 0 0 80 0 80 -80 0 -80 0 0 80 0 80 80 0 80 0 0 -80z
m-3680 -1280 l0 -80 -80 0 -80 0 0 80 0 80 80 0 80 0 0 -80z m640 0 l0 -80
-80 0 -80 0 0 80 0 80 80 0 80 0 0 -80z m-960 -160 l0 -80 -80 0 -80 0 0 80 0
80 80 0 80 0 0 -80z m640 0 l0 -80 -80 0 -80 0 0 80 0 80 80 0 80 0 0 -80z
m960 0 l0 -80 -80 0 -80 0 0 80 0 80 80 0 80 0 0 -80z m-1280 -160 l0 -80 -80
0 -80 0 0 80 0 80 80 0 80 0 0 -80z m960 0 l0 -80 -80 0 -80 0 0 -80 0 -80
-80 0 -80 0 0 80 0 80 80 0 80 0 0 80 0 80 80 0 80 0 0 -80z m-1920 -160 l0
-80 -80 0 -80 0 0 80 0 80 80 0 80 0 0 -80z m2720 0 l0 -80 -80 0 -80 0 0 80
0 80 80 0 80 0 0 -80z m3840 -80 l0 -160 -80 0 -80 0 0 160 0 160 80 0 80 0 0
-160z m-6240 -80 l0 -80 -80 0 -80 0 0 80 0 80 80 0 80 0 0 -80z m800 0 l0
-80 -80 0 -80 0 0 80 0 80 80 0 80 0 0 -80z m800 -160 l0 -80 -80 0 -80 0 0
80 0 80 80 0 80 0 0 -80z m1280 -80 l0 -160 -160 0 -160 0 0 80 0 80 80 0 80
0 0 80 0 80 80 0 80 0 0 -160z m-1760 -80 l0 -80 -80 0 -80 0 0 80 0 80 80 0
80 0 0 -80z m960 0 l0 -80 -80 0 -80 0 0 80 0 80 80 0 80 0 0 -80z m6240 -240
l0 -160 -80 0 -80 0 0 80 0 80 -80 0 -80 0 0 80 0 80 160 0 160 0 0 -160z
m-6880 -80 l0 -80 -80 0 -80 0 0 80 0 80 80 0 80 0 0 -80z m800 0 l0 -80 -80
0 -80 0 0 80 0 80 80 0 80 0 0 -80z m480 -320 l0 -80 -80 0 -80 0 0 80 0 80
80 0 80 0 0 -80z m-800 -160 l0 -80 -80 0 -80 0 0 80 0 80 80 0 80 0 0 -80z
m0 -480 l0 -80 -80 0 -80 0 0 80 0 80 80 0 80 0 0 -80z m-160 -320 l0 -80 -80
0 -80 0 0 80 0 80 80 0 80 0 0 -80z m-1440 -800 l0 -80 -80 0 -80 0 0 80 0 80
80 0 80 0 0 -80z m480 -160 l0 -80 -80 0 -80 0 0 80 0 80 80 0 80 0 0 -80z
m480 -480 l0 -80 -80 0 -80 0 0 80 0 80 80 0 80 0 0 -80z m-480 -320 l0 -80
-80 0 -80 0 0 80 0 80 80 0 80 0 0 -80z m0 -480 l0 -80 -80 0 -80 0 0 80 0 80
80 0 80 0 0 -80z m6880 0 l0 -80 80 0 80 0 0 -80 0 -80 80 0 80 0 0 -80 0 -80
80 0 80 0 0 -80 0 -80 160 0 160 0 0 -160 0 -160 -80 0 -80 0 0 -80 0 -80 -80
0 -80 0 0 80 0 80 -80 0 -80 0 0 -80 0 -80 -80 0 -80 0 0 80 0 80 80 0 80 0 0
80 0 80 -160 0 -160 0 0 80 0 80 -80 0 -80 0 0 -160 0 -160 -80 0 -80 0 0 80
0 80 -80 0 -80 0 0 -240 0 -240 -80 0 -80 0 0 160 0 160 -80 0 -80 0 0 80 0
80 80 0 80 0 0 80 0 80 -160 0 -160 0 0 -80 0 -80 -160 0 -160 0 0 -80 0 -80
-80 0 -80 0 0 -80 0 -80 -160 0 -160 0 0 80 0 80 80 0 80 0 0 80 0 80 80 0 80
0 0 80 0 80 80 0 80 0 0 80 0 80 80 0 80 0 0 80 0 80 160 0 160 0 0 80 0 80
80 0 80 0 0 80 0 80 320 0 320 0 0 -80z m-9280 -400 l0 -160 -80 0 -80 0 0
160 0 160 80 0 80 0 0 -160z m640 80 l0 -80 -80 0 -80 0 0 80 0 80 80 0 80 0
0 -80z m320 -160 l0 -80 -80 0 -80 0 0 80 0 80 80 0 80 0 0 -80z m640 0 l0
-80 -80 0 -80 0 0 80 0 80 80 0 80 0 0 -80z m-1760 -480 l0 -80 -80 0 -80 0 0
80 0 80 80 0 80 0 0 -80z m640 -160 l0 -80 -80 0 -80 0 0 80 0 80 80 0 80 0 0
-80z m4960 0 l0 -80 -80 0 -80 0 0 80 0 80 80 0 80 0 0 -80z m-4320 -160 l0
-80 -80 0 -80 0 0 80 0 80 80 0 80 0 0 -80z m4640 0 l0 -80 160 0 160 0 0 -80
0 -80 320 0 320 0 0 -80 0 -80 1120 0 1120 0 0 80 0 80 480 0 480 0 0 -80 0
-80 -160 0 -160 0 0 -160 0 -160 -960 0 -960 0 0 80 0 80 -80 0 -80 0 0 -80 0
-80 -160 0 -160 0 0 80 0 80 -400 0 -400 0 0 80 0 80 -160 0 -160 0 0 80 0 80
-160 0 -160 0 0 80 0 80 -80 0 -80 0 0 80 0 80 80 0 80 0 0 -80z m-5120 -320
l0 -80 -80 0 -80 0 0 80 0 80 80 0 80 0 0 -80z m-960 -160 l0 -80 -80 0 -80 0
0 80 0 80 80 0 80 0 0 -80z"/>
<path d="M3520 12320 l0 -160 160 0 160 0 0 -80 0 -80 -160 0 -160 0 0 -80 0
-80 -80 0 -80 0 0 -80 0 -80 80 0 80 0 0 -80 0 -80 -240 0 -240 0 0 160 0 160
-160 0 -160 0 0 80 0 80 -80 0 -80 0 0 160 0 160 -80 0 -80 0 0 -80 0 -80 -80
0 -80 0 0 -80 0 -80 80 0 80 0 0 -160 0 -160 -240 0 -240 0 0 -80 0 -80 -80 0
-80 0 0 -240 0 -240 -80 0 -80 0 0 80 0 80 -160 0 -160 0 0 -80 0 -80 -80 0
-80 0 0 -160 0 -160 80 0 80 0 0 -80 0 -80 80 0 80 0 0 -160 0 -160 -240 0
-240 0 0 -80 0 -80 -80 0 -80 0 0 -160 0 -160 -80 0 -80 0 0 -160 0 -160 80 0
80 0 0 80 0 80 80 0 80 0 0 160 0 160 80 0 80 0 0 80 0 80 80 0 80 0 0 -80 0
-80 80 0 80 0 0 80 0 80 80 0 80 0 0 320 0 320 -160 0 -160 0 0 80 0 80 240 0
240 0 0 -80 0 -80 160 0 160 0 0 240 0 240 -80 0 -80 0 0 80 0 80 80 0 80 0 0
80 0 80 80 0 80 0 0 -80 0 -80 160 0 160 0 0 240 0 240 80 0 80 0 0 -80 0 -80
80 0 80 0 0 -240 0 -240 160 0 160 0 0 80 0 80 160 0 160 0 0 -80 0 -80 80 0
80 0 0 240 0 240 160 0 160 0 0 240 0 240 -80 0 -80 0 0 80 0 80 -80 0 -80 0
0 80 0 80 -80 0 -80 0 0 -160z"/>
<path d="M8800 8880 l0 -240 240 0 240 0 0 80 0 80 80 0 80 0 0 -160 0 -160
160 0 160 0 0 80 0 80 -80 0 -80 0 0 160 0 160 -240 0 -240 0 0 -80 0 -80 -80
0 -80 0 0 160 0 160 -80 0 -80 0 0 -240z"/>
<path d="M10080 8960 l0 -160 240 0 240 0 0 80 0 80 -160 0 -160 0 0 80 0 80
-80 0 -80 0 0 -160z"/>
<path d="M1920 7280 l0 -80 -80 0 -80 0 0 -80 0 -80 -80 0 -80 0 0 -80 0 -80
-80 0 -80 0 0 80 0 80 -80 0 -80 0 0 -160 0 -160 240 0 240 0 0 80 0 80 80 0
80 0 0 160 0 160 80 0 80 0 0 80 0 80 -80 0 -80 0 0 -80z"/>
<path d="M480 6640 l0 -80 160 0 160 0 0 80 0 80 -160 0 -160 0 0 -80z"/>
<path d="M640 6320 l0 -80 80 0 80 0 0 -80 0 -80 80 0 80 0 0 80 0 80 80 0 80
0 0 80 0 80 -240 0 -240 0 0 -80z"/>
<path d="M640 5360 l0 -80 80 0 80 0 0 -240 0 -240 80 0 80 0 0 80 0 80 160 0
160 0 0 240 0 240 -80 0 -80 0 0 -160 0 -160 -80 0 -80 0 0 80 0 80 -80 0 -80
0 0 80 0 80 -80 0 -80 0 0 -80z"/>
<path d="M160 5200 l0 -80 80 0 80 0 0 -160 0 -160 -160 0 -160 0 0 -80 0 -80
240 0 240 0 0 320 0 320 -160 0 -160 0 0 -80z"/>
<path d="M14880 3440 l0 -80 -240 0 -240 0 0 -160 0 -160 160 0 160 0 0 -80 0
-80 -240 0 -240 0 0 80 0 80 -160 0 -160 0 0 -80 0 -80 -80 0 -80 0 0 -80 0
-80 -80 0 -80 0 0 -80 0 -80 80 0 80 0 0 -80 0 -80 -160 0 -160 0 0 -80 0 -80
-80 0 -80 0 0 80 0 80 -240 0 -240 0 0 -160 0 -160 160 0 160 0 0 -80 0 -80
80 0 80 0 0 -80 0 -80 -320 0 -320 0 0 80 0 80 -320 0 -320 0 0 -240 0 -240
160 0 160 0 0 -80 0 -80 -80 0 -80 0 0 -80 0 -80 -80 0 -80 0 0 80 0 80 -160
0 -160 0 0 80 0 80 -160 0 -160 0 0 80 0 80 -80 0 -80 0 0 -80 0 -80 -80 0
-80 0 0 -80 0 -80 80 0 80 0 0 -160 0 -160 80 0 80 0 0 -80 0 -80 -80 0 -80 0
0 -80 0 -80 -80 0 -80 0 0 80 0 80 -240 0 -240 0 0 80 0 80 -80 0 -80 0 0 80
0 80 -400 0 -400 0 0 -160 0 -160 240 0 240 0 0 -80 0 -80 80 0 80 0 0 -80 0
-80 -320 0 -320 0 0 80 0 80 -80 0 -80 0 0 80 0 80 -80 0 -80 0 0 80 0 80 -80
0 -80 0 0 80 0 80 -240 0 -240 0 0 80 0 80 -240 0 -240 0 0 80 0 80 -160 0
-160 0 0 -160 0 -160 80 0 80 0 0 -80 0 -80 -320 0 -320 0 0 80 0 80 -240 0
-240 0 0 80 0 80 -240 0 -240 0 0 80 0 80 -240 0 -240 0 0 80 0 80 -160 0
-160 0 0 80 0 80 -80 0 -80 0 0 -80 0 -80 80 0 80 0 0 -80 0 -80 80 0 80 0 0
-80 0 -80 -160 0 -160 0 0 80 0 80 -400 0 -400 0 0 80 0 80 -80 0 -80 0 0 240
0 240 -80 0 -80 0 0 -240 0 -240 -80 0 -80 0 0 -160 0 -160 -160 0 -160 0 0
-80 0 -80 240 0 240 0 0 160 0 160 80 0 80 0 0 -80 0 -80 80 0 80 0 0 -160 0
-160 80 0 80 0 0 -80 0 -80 80 0 80 0 0 -80 0 -80 160 0 160 0 0 80 0 80 80 0
80 0 0 -80 0 -80 160 0 160 0 0 -80 0 -80 160 0 160 0 0 -80 0 -80 80 0 80 0
0 -80 0 -80 160 0 160 0 0 -80 0 -80 1120 0 1120 0 0 160 0 160 -160 0 -160 0
0 80 0 80 320 0 320 0 0 -80 0 -80 720 0 720 0 0 80 0 80 80 0 80 0 0 -80 0
-80 160 0 160 0 0 80 0 80 240 0 240 0 0 80 0 80 160 0 160 0 0 80 0 80 80 0
80 0 0 80 0 80 160 0 160 0 0 80 0 80 160 0 160 0 0 80 0 80 160 0 160 0 0 80
0 80 160 0 160 0 0 80 0 80 80 0 80 0 0 80 0 80 240 0 240 0 0 160 0 160 160
0 160 0 0 80 0 80 80 0 80 0 0 80 0 80 80 0 80 0 0 80 0 80 80 0 80 0 0 80 0
80 160 0 160 0 0 80 0 80 160 0 160 0 0 240 0 240 -80 0 -80 0 0 -80 0 -80
-80 0 -80 0 0 160 0 160 -80 0 -80 0 0 -80z m-1440 -1440 l0 -80 -80 0 -80 0
0 80 0 80 80 0 80 0 0 -80z m-7200 -800 l0 -80 240 0 240 0 0 -80 0 -80 160 0
160 0 0 -80 0 -80 -240 0 -240 0 0 80 0 80 -240 0 -240 0 0 80 0 80 -160 0
-160 0 0 80 0 80 240 0 240 0 0 -80z m5440 -160 l0 -80 80 0 80 0 0 -80 0 -80
-80 0 -80 0 0 80 0 80 -80 0 -80 0 0 80 0 80 80 0 80 0 0 -80z m-3360 -160 l0
-80 -160 0 -160 0 0 80 0 80 160 0 160 0 0 -80z m-640 -160 l0 -80 -160 0
-160 0 0 80 0 80 160 0 160 0 0 -80z m1440 0 l0 -80 -80 0 -80 0 0 80 0 80 80
0 80 0 0 -80z m2400 0 l0 -80 -80 0 -80 0 0 80 0 80 80 0 80 0 0 -80z m-3360
-160 l0 -80 -160 0 -160 0 0 80 0 80 160 0 160 0 0 -80z"/>
<path d="M3200 2720 l0 -160 -160 0 -160 0 0 -80 0 -80 -160 0 -160 0 0 -80 0
-80 -240 0 -240 0 0 -80 0 -80 -80 0 -80 0 0 -160 0 -160 -80 0 -80 0 0 -80 0
-80 160 0 160 0 0 160 0 160 80 0 80 0 0 80 0 80 80 0 80 0 0 -80 0 -80 80 0
80 0 0 80 0 80 240 0 240 0 0 160 0 160 160 0 160 0 0 160 0 160 160 0 160 0
0 -80 0 -80 160 0 160 0 0 80 0 80 -80 0 -80 0 0 80 0 80 -320 0 -320 0 0
-160z"/>
<path d="M5440 2480 l0 -80 -160 0 -160 0 0 -80 0 -80 80 0 80 0 0 -80 0 -80
160 0 160 0 0 80 0 80 80 0 80 0 0 -160 0 -160 80 0 80 0 0 -80 0 -80 80 0 80
0 0 80 0 80 80 0 80 0 0 -80 0 -80 80 0 80 0 0 -80 0 -80 160 0 160 0 0 80 0
80 80 0 80 0 0 80 0 80 -240 0 -240 0 0 80 0 80 -160 0 -160 0 0 80 0 80 -80
0 -80 0 0 80 0 80 -80 0 -80 0 0 80 0 80 -160 0 -160 0 0 -80z"/>
<path d="M15040 2480 l0 -80 -80 0 -80 0 0 -80 0 -80 -80 0 -80 0 0 -80 0 -80
-160 0 -160 0 0 -80 0 -80 -80 0 -80 0 0 -80 0 -80 -80 0 -80 0 0 -80 0 -80
-80 0 -80 0 0 -80 0 -80 -80 0 -80 0 0 -80 0 -80 -80 0 -80 0 0 -80 0 -80
-160 0 -160 0 0 -80 0 -80 -160 0 -160 0 0 -80 0 -80 80 0 80 0 0 -80 0 -80
560 0 560 0 0 -80 0 -80 400 0 400 0 0 80 0 80 160 0 160 0 0 960 0 960 -160
0 -160 0 0 -80z"/>
<path d="M800 1680 l0 -80 -80 0 -80 0 0 -80 0 -80 -80 0 -80 0 0 -160 0 -160
240 0 240 0 0 -80 0 -80 -80 0 -80 0 0 -80 0 -80 -80 0 -80 0 0 -80 0 -80 -80
0 -80 0 0 80 0 80 -80 0 -80 0 0 -80 0 -80 -80 0 -80 0 0 -240 0 -240 80 0 80
0 0 -80 0 -80 1040 0 1040 0 0 160 0 160 160 0 160 0 0 -80 0 -80 80 0 80 0 0
240 0 240 -80 0 -80 0 0 -80 0 -80 -80 0 -80 0 0 80 0 80 -80 0 -80 0 0 -80 0
-80 -80 0 -80 0 0 -160 0 -160 -80 0 -80 0 0 80 0 80 -80 0 -80 0 0 240 0 240
80 0 80 0 0 160 0 160 -80 0 -80 0 0 160 0 160 -160 0 -160 0 0 80 0 80 -80 0
-80 0 0 80 0 80 -320 0 -320 0 0 -80z m480 -160 l0 -80 80 0 80 0 0 -80 0 -80
160 0 160 0 0 -80 0 -80 -80 0 -80 0 0 -80 0 -80 -160 0 -160 0 0 80 0 80
-160 0 -160 0 0 80 0 80 -160 0 -160 0 0 80 0 80 160 0 160 0 0 80 0 80 160 0
160 0 0 -80z"/>
<path d="M7520 1680 l0 -80 -160 0 -160 0 0 -160 0 -160 160 0 160 0 0 80 0
80 80 0 80 0 0 160 0 160 -80 0 -80 0 0 -80z"/>
<path d="M3520 1200 l0 -80 -80 0 -80 0 0 -160 0 -160 -160 0 -160 0 0 -80 0
-80 80 0 80 0 0 -160 0 -160 160 0 160 0 0 320 0 320 80 0 80 0 0 160 0 160
-80 0 -80 0 0 -80z"/>
</g>
</svg>
